<svg id="Layer_1" data-name="Layer 1" xmlns="http://www.w3.org/2000/svg" xmlns:xlink="http://www.w3.org/1999/xlink" viewBox="0 0 303.3 222.77"><defs><radialGradient id="radial-gradient" cx="290.65" cy="95.13" fx="272.5745040018072" fy="63.41066615733772" r="53.77" gradientUnits="userSpaceOnUse"><stop offset="0.42" stop-color="#c90475"/><stop offset="0.69" stop-color="#8b077f"/></radialGradient><linearGradient id="linear-gradient" x1="243.09" y1="67.01" x2="332.33" y2="67.01" gradientUnits="userSpaceOnUse"><stop offset="0" stop-color="#0da590"/><stop offset="0.7" stop-color="#00a3dc"/></linearGradient><linearGradient id="linear-gradient-2" x1="265.98" y1="100.96" x2="310.88" y2="158" gradientUnits="userSpaceOnUse"><stop offset="0" stop-color="#f4e600"/><stop offset="0.7" stop-color="#bd241b"/></linearGradient><linearGradient id="linear-gradient-3" x1="135.74" y1="100.56" x2="135.74" y2="166.15" gradientUnits="userSpaceOnUse"><stop offset="0" stop-color="#f4e600"/><stop offset="0.7" stop-color="#e28b01"/></linearGradient><linearGradient id="linear-gradient-4" x1="222" y1="199" x2="290.24" y2="199" gradientUnits="userSpaceOnUse"><stop offset="0" stop-color="#0f93b1"/><stop offset="0.96" stop-color="#9edae3"/></linearGradient><linearGradient id="linear-gradient-5" x1="229.05" y1="194.71" x2="274.19" y2="194.71" gradientUnits="userSpaceOnUse"><stop offset="0" stop-color="#95518d"/><stop offset="0.95" stop-color="#c78cb4"/></linearGradient><linearGradient id="linear-gradient-6" x1="184.86" y1="121.01" x2="226.31" y2="172.24" gradientUnits="userSpaceOnUse"><stop offset="0" stop-color="#edaf05"/><stop offset="1" stop-color="#e28b01"/></linearGradient><linearGradient id="linear-gradient-7" x1="164.42" y1="118.36" x2="189.08" y2="142.07" gradientUnits="userSpaceOnUse"><stop offset="0" stop-color="#edaf05"/><stop offset="0.73" stop-color="#e28b01"/></linearGradient><linearGradient id="linear-gradient-8" x1="127.37" y1="119.77" x2="157.81" y2="146.46" gradientUnits="userSpaceOnUse"><stop offset="0" stop-color="#edaf05"/><stop offset="0.57" stop-color="#e28b01"/></linearGradient><linearGradient id="linear-gradient-9" x1="173.5" y1="116.2" x2="238.22" y2="170.28" gradientUnits="userSpaceOnUse"><stop offset="0" stop-color="#edaf05"/><stop offset="0.69" stop-color="#e28b01"/></linearGradient></defs><path d="M242.07,216c-21,0-43.1-14.11-60.67-38.72-15.92-22.3-25.81-50.13-25.81-72.64,0-20.18,5.45-34.3,16.65-43.16C183,52.94,199,49,222.66,49c5.92,0,12.5.26,19.55.77,22.56,1.62,47.86,10.46,67.68,23.65,22,14.64,33.68,32,32.94,48.91-.79,17.81-13.73,41-33.78,60.62C287.58,203.92,263.16,216,242.07,216Z" transform="translate(-41.56 -11.57)" fill="#00365c"/><path d="M222.66,51c6,0,12.49.27,19.41.76,44.68,3.21,100.3,35.5,98.76,70.49C339.26,158,286.86,214,242.07,214S157.59,149.4,157.59,104.6c0-39.43,20.69-53.61,65.07-53.62m0-4h0c-24.13,0-40.54,4.1-51.66,12.89-11.71,9.26-17.41,23.9-17.41,44.73,0,22.9,10,51.18,26.19,73.8,8.32,11.66,18,21.37,28,28.09C219,214.1,230.58,218,242.07,218c21.61,0,46.53-12.25,68.38-33.6,20.4-19.93,33.57-43.67,34.37-62,.78-17.63-11.23-35.62-33.82-50.66-20.1-13.38-45.76-22.34-68.65-24-7.1-.51-13.73-.77-19.69-.77Z" transform="translate(-41.56 -11.57)" fill="#fff"/><path d="M292,165.73a2,2,0,0,1-1.94-2.49c.5-2,1.69-7.7,1.3-10.44-.48-3.36-3.81-9-8-12-1.51-1.09-4.31-2.88-7.55-5-7.12-4.57-16-10.26-19.39-13.67-4.49-4.49-12.09-12.9-12.59-18.86s.59-11.15,2.92-14c3.56-4.43,6.95-6,8.95-6h4.27a1.81,1.81,0,0,1,.52.07c2.49.37,7.13,2.37,8.25,2.86S286.59,92.42,292,93.5a16.58,16.58,0,0,0,3.15.26,46.84,46.84,0,0,0,7.11-.66c-12.18-6.84-36-17.74-37.7-18.54-1.76-.59-19.27-6.75-22.33-20.11a40.57,40.57,0,0,1,3.36-28c2.35-5,5-11.57,5-11.64a2,2,0,0,1,1.49-1.22,2.2,2.2,0,0,1,.36,0,2,2,0,0,1,1.47.65c.19.21,19.44,20.91,32.83,25.63,16,5.64,43.85,19,46.69,33.54,2.45,12.53-.77,29.22-4,34.75a51.94,51.94,0,0,1-9.24,11.73,2.33,2.33,0,0,1-1.08.53,49,49,0,0,1-8.16,2.32,31.75,31.75,0,0,1-3.54.16c3.51,11.62,3.81,19.61,1,25.68-3.5,7.58-6.8,10.68-9.62,13a36.3,36.3,0,0,1-6,4A2,2,0,0,1,292,165.73Z" transform="translate(-41.56 -11.57)" fill="#fff"/><path d="M252.46,15.56s19.61,21.23,33.64,26.17c18.95,6.67,43,19.75,45.38,32s-.8,28.3-3.73,33.37a50.91,50.91,0,0,1-8.81,11.21.32.32,0,0,1-.22.09h0a50.87,50.87,0,0,1-7.95,2.3,38,38,0,0,1-4,.15l-2,0c3.58,10.92,5.07,20,1.93,26.85s-6.14,9.88-9.08,12.28a34.18,34.18,0,0,1-5.61,3.74s1.87-7.48,1.34-11.21-4-9.88-8.81-13.35-21.89-13.62-26.7-18.42-11.59-12.57-12-17.62.46-10.09,2.49-12.63c3.45-4.3,6.32-5.26,7.39-5.26h4.27l0,0C262.14,85.45,268,88,268,88s17.83,6.28,23.61,7.43a17.87,17.87,0,0,0,3.55.3,63.09,63.09,0,0,0,12.59-1.71c-9.9-6.5-42.45-21.36-42.45-21.36S247.1,66.82,244.17,54a38.46,38.46,0,0,1,3.22-26.7c2.4-5.07,5.07-11.75,5.07-11.75m0-4a4.37,4.37,0,0,0-.72.06,4,4,0,0,0-3,2.45c0,.06-2.65,6.62-5,11.52a42.41,42.41,0,0,0-3.51,29.3c3.24,14.15,21.13,20.7,23.54,21.52,2,.92,19.34,8.88,31.74,15.34h-.41a14.18,14.18,0,0,1-2.76-.22c-4.47-.89-17.92-5.47-22.93-7.23a44.45,44.45,0,0,0-8.59-3,4.06,4.06,0,0,0-.92-.11h-4.27c-1.2,0-5.48.49-10.51,6.76-2.64,3.29-3.9,9.07-3.36,15.46s7.46,14.4,13.17,20.12c3.57,3.56,12.53,9.31,19.73,13.93,3.22,2.07,6,3.85,7.46,4.9,4.07,2.94,6.83,8.18,7.19,10.67.29,2-.56,6.88-1.26,9.68a4,4,0,0,0,5.67,4.55,38.36,38.36,0,0,0,6.35-4.22c3.72-3,6.87-6.54,10.18-13.7,2.85-6.18,2.83-13.71-.18-24.59.43,0,.81-.06,1.13-.1a49.74,49.74,0,0,0,8.49-2.39,4.41,4.41,0,0,0,1.81-.93,54.78,54.78,0,0,0,9.67-12.24c3.43-5.94,6.78-23,4.2-36.15-3.71-18.94-43.46-33.44-48-35-12.93-4.55-31.84-24.9-32-25.1a4,4,0,0,0-2.94-1.28Z" transform="translate(-41.56 -11.57)" fill="#fff"/><path d="M307.73,94s-10.36,2.58-16.14,1.42S268,88,268,88s-6.32-2.79-8.31-2.79c-2.64,0-4.74,4.77-3.42,8.74s14.2,11.06,21.8,16.18,21.8,10.57,21.8,10.57,8.26.33,10.9,0a54.42,54.42,0,0,0,8.19-2.39s1.22-9.5,1.22-10-6.6-12.71-6.6-12.71l-3.64-2.48Z" transform="translate(-41.56 -11.57)" fill="url(#radial-gradient)"/><path d="M252.46,15.56s19.61,21.23,33.64,26.17c18.95,6.67,43,19.75,45.38,32s-.8,28.3-3.73,33.37a50.91,50.91,0,0,1-8.81,11.21c-1.87,1.61-1.34-16.28-9.35-23-6.56-5.48-44.31-22.7-44.31-22.7S247.1,66.82,244.17,54a38.46,38.46,0,0,1,3.22-26.7C249.79,22.24,252.46,15.56,252.46,15.56Z" transform="translate(-41.56 -11.57)" fill="url(#linear-gradient)"/><path d="M292,163.73s1.87-7.48,1.34-11.21-4-9.88-8.81-13.35-21.89-13.62-26.7-18.42-11.59-12.57-12-17.62.46-10.09,2.49-12.63c3.45-4.3,6.32-5.26,7.39-5.26h4.27s-3.79,4.3-.05,7.24A45.45,45.45,0,0,0,276,100.27c6.94,1.87,24.75,8.73,28.49,19.94s5.34,20.56,2.14,27.5-6.14,9.88-9.08,12.28A34.18,34.18,0,0,1,292,163.73Z" transform="translate(-41.56 -11.57)" fill="url(#linear-gradient-2)"/><path d="M52.1,166.15a8.55,8.55,0,0,1-8.54-8.54V109.14a8.55,8.55,0,0,1,17.09,0v48.47A8.56,8.56,0,0,1,52.1,166.15Z" transform="translate(-41.56 -11.57)" fill="#c4027d"/><path d="M52.1,102.6a6.54,6.54,0,0,1,6.55,6.54v48.47a6.55,6.55,0,0,1-13.09,0V109.14a6.54,6.54,0,0,1,6.54-6.54m0-4a10.55,10.55,0,0,0-10.54,10.54v48.47a10.55,10.55,0,0,0,21.09,0V109.14A10.56,10.56,0,0,0,52.1,98.6Z" transform="translate(-41.56 -11.57)" fill="#fff"/><path d="M104.19,166.15a8.55,8.55,0,0,1-8.54-8.54V109.14a8.54,8.54,0,0,1,17.08,0v48.47A8.55,8.55,0,0,1,104.19,166.15Z" transform="translate(-41.56 -11.57)" fill="#c4027d"/><path d="M104.19,102.6a6.54,6.54,0,0,1,6.54,6.54v48.47a6.54,6.54,0,0,1-6.54,6.54h0a6.54,6.54,0,0,1-6.54-6.54V109.14a6.54,6.54,0,0,1,6.54-6.54h0m0-4a10.55,10.55,0,0,0-10.54,10.54v48.47a10.54,10.54,0,0,0,21.08,0V109.14A10.55,10.55,0,0,0,104.19,98.6Z" transform="translate(-41.56 -11.57)" fill="#fff"/><path d="M69.22,166.15a8.55,8.55,0,0,1-8.54-8.54V109.14a8.55,8.55,0,0,1,8.54-8.54l.55,0a8.72,8.72,0,0,1,1-.06,8.57,8.57,0,0,1,7,3.66l33.39,48a8.53,8.53,0,0,1-7,13.41h0a8.57,8.57,0,0,1-7-3.66L77.76,134.08v23.53A8.55,8.55,0,0,1,69.22,166.15Z" transform="translate(-41.56 -11.57)" fill="#c4027d"/><path d="M70.79,102.56a6.51,6.51,0,0,1,5.37,2.8l33.4,48a6.54,6.54,0,0,1-10.74,7.47L75.76,127.7v29.91a6.54,6.54,0,0,1-13.08,0V109.14a6.54,6.54,0,0,1,6.54-6.54q.3,0,.6,0a6.42,6.42,0,0,1,1-.07m0-4c-.35,0-.71,0-1.07,0h-.5a10.55,10.55,0,0,0-10.54,10.54v48.47a10.54,10.54,0,0,0,21.08,0V140.46l15.77,22.69a10.54,10.54,0,1,0,17.31-12l-33.39-48a10.55,10.55,0,0,0-8.66-4.52Z" transform="translate(-41.56 -11.57)" fill="#fff"/><path d="M110.73,155.15v-46a6.54,6.54,0,0,0-13.08,0V134.3Z" transform="translate(-41.56 -11.57)" fill="#c4027d"/><path d="M136.2,166.15a8.56,8.56,0,0,1-8.55-8.54v-40H122a8.54,8.54,0,1,1,0-17.08h27.4a8.54,8.54,0,0,1,0,17.08h-4.7v40A8.55,8.55,0,0,1,136.2,166.15Z" transform="translate(-41.56 -11.57)" fill="url(#linear-gradient-3)"/><path d="M149.44,102.56a6.54,6.54,0,0,1,0,13.08h-6.7v42a6.55,6.55,0,0,1-13.09,0v-42H122a6.54,6.54,0,0,1,0-13.08h27.4m0-4H122a10.54,10.54,0,1,0,0,21.08h3.61v38a10.55,10.55,0,0,0,21.09,0v-38h2.7a10.54,10.54,0,0,0,0-21.08Z" transform="translate(-41.56 -11.57)" fill="#fff"/><path d="M157.14,151.25a2,2,0,0,1-2-2V109.14a8.55,8.55,0,0,1,8.54-8.54h21.13a8.54,8.54,0,0,1,0,17.08H172.22v6h10.63a8.54,8.54,0,0,1,0,17.08H172.22v8.45a2,2,0,0,1-2,2Z" transform="translate(-41.56 -11.57)" fill="#e28b01"/><path d="M184.81,102.6a6.54,6.54,0,0,1,0,13.08H170.22v10h12.63a6.54,6.54,0,1,1,0,13.08H170.22v10.45H157.14V109.14a6.54,6.54,0,0,1,6.54-6.54h21.13m0-4H163.68a10.55,10.55,0,0,0-10.54,10.54v40.11a4,4,0,0,0,4,4h13.08a4,4,0,0,0,4-4V142.8h8.63a10.54,10.54,0,0,0,0-21.08h-8.63v-2h10.59a10.54,10.54,0,0,0,0-21.08Z" transform="translate(-41.56 -11.57)" fill="#fff"/><path d="M242.78,232.33c-6.71,0-12.25-2.25-16-6.52-9.59-10.85-4.25-31.71,11.91-46.5,9.34-8.55,20.84-13.65,30.78-13.65,6.72,0,12.26,2.26,16,6.52,9.59,10.86,4.25,31.72-11.91,46.51-9.34,8.54-20.85,13.64-30.79,13.64Zm21.69-55.79c-5.62,0-11.47,2.89-18.43,9.09-6.28,5.58-10.61,14.35-10.55,21.32,0,3.79,1.29,6.77,3.73,8.87a5.13,5.13,0,0,0,3.28.87c5.92,0,15.74-4.73,22.34-10.78,6.44-5.89,10.5-17.82,9.69-24.14-.19-1.5-.66-2.54-1.28-2.88A18.45,18.45,0,0,0,264.47,176.54Z" transform="translate(-41.56 -11.57)" fill="url(#linear-gradient-4)"/><path d="M269.45,167.66c5.9,0,11,1.9,14.53,5.85,8.89,10.06,3.62,29.62-11.76,43.7-9.36,8.56-20.3,13.12-29.43,13.12-5.9,0-11-1.9-14.53-5.84-8.89-10.06-3.62-29.63,11.76-43.71,9.36-8.56,20.3-13.12,29.43-13.12m-26.95,51c6.5,0,16.71-4.92,23.7-11.31,9-8.26,13.57-27.29,8-30.25a20.45,20.45,0,0,0-9.72-2.59c-6.87,0-13.3,3.84-19.76,9.6-10.08,9-15.66,25.58-6.79,33.2a7,7,0,0,0,4.58,1.35m26.95-55c-10.58,0-22.29,5.17-32.13,14.17-8,7.32-13.73,16.29-16.14,25.27-2.58,9.6-1.13,18.13,4.08,24,4.16,4.7,10.22,7.19,17.53,7.19,10.58,0,22.29-5.16,32.13-14.17,8-7.31,13.72-16.29,16.14-25.27,2.58-9.59,1.13-18.13-4.09-24-4.15-4.71-10.21-7.2-17.52-7.2Zm-26.95,51a3.44,3.44,0,0,1-2-.39,9.32,9.32,0,0,1-3-7.37c-.06-6.43,4-14.58,9.88-19.81,6.57-5.85,12-8.58,17.1-8.58a16.34,16.34,0,0,1,7.7,2.05c.44.71,1,4.07-.71,9.91-1.66,5.68-4.64,10.89-8,13.93-6.18,5.66-15.59,10.26-21,10.26Z" transform="translate(-41.56 -11.57)" fill="#fff"/><path d="M276.28,188.28l4.34,6.43,7.48-5.47s.55-6.12-.69-9.51c-.82-2.24-2.13-5.32-4.6-7.41a19.45,19.45,0,0,0-11.21-4.57,36.39,36.39,0,0,0-11.75,1.41,68.45,68.45,0,0,0-8.32,3.44c-3.56,1.71-9.41,6.36-9.41,6.36s10.46-5,13.13-5.72a86.57,86.57,0,0,1,8.71-.93s5.21,1.56,6.7,2.23,5.06,4.22,5.06,4.22l.71,1.92.2,2.3v2.57Z" transform="translate(-41.56 -11.57)" fill="#a9d3e3"/><path d="M240.76,188.46c9.84-12.36,24.49-17.22,33.43-11.33-.35-.33-.71-.65-1.09-.95-10-7.94-26.36-4-36.59,8.9s-9.73,23.47.24,31.41c.38.3.78.58,1.17.85C232.31,212.71,230.91,200.83,240.76,188.46Z" transform="translate(-41.56 -11.57)" fill="url(#linear-gradient-5)"/><path d="M52.4,189.41H49.14V174.55H52.4Z" transform="translate(-41.56 -11.57)" fill="#023658"/><path d="M70.15,179.74H66.5V176.8c0-.24-.19-.36-.56-.36s-.58.12-.58.36v10.31c0,.24.19.36.58.36s.56-.12.56-.36v-3.67h3.65v3.78a1.9,1.9,0,0,1-1.28,1.69,6.43,6.43,0,0,1-2.89.64q-4.65,0-4.65-2.68v-9.56q0-2.9,4.65-2.9,4.17,0,4.17,2.64Z" transform="translate(-41.56 -11.57)" fill="#023658"/><path d="M84.39,189.41H77.72V174.55h6.63v3H81.13v2.89H84V183h-2.9v3.58h3.26Z" transform="translate(-41.56 -11.57)" fill="#023658"/><path d="M91.9,183.46h3.43v3.41c0,.34.23.51.71.51s.69-.17.69-.51v-1.76c0-.54-.42-1.17-1.25-1.9a31.26,31.26,0,0,1-3-2.71A2.31,2.31,0,0,1,91.9,179v-1.67q0-2.9,4.37-2.9,3.9,0,3.9,2.64v2.57H96.75v-2.74c0-.3-.19-.44-.57-.44s-.67.28-.67.86l.07,1c0,.55.42,1.2,1.27,1.93a27.06,27.06,0,0,1,3,2.73,2.71,2.71,0,0,1,.65,1.77v1.89q0,3-4.38,3-4.22,0-4.22-2.7Z" transform="translate(-41.56 -11.57)" fill="#023658"/><path d="M115.89,177.64h-2.16v11.77h-3.86V177.64h-2.16v-3.09h8.18Z" transform="translate(-41.56 -11.57)" fill="#023658"/><path d="M134.33,189.41h-8.47v-2l4.17-6.73a5.76,5.76,0,0,0,.68-3q0-1-.75-1c-.52,0-.78.2-.78.62v2.55h-3.32v-2.59q0-2.88,4.19-2.88c1.73,0,2.87.36,3.43,1.06a5.49,5.49,0,0,1,.85,3.45,3.05,3.05,0,0,1-.37,1.56l-4.17,7h4.54Z" transform="translate(-41.56 -11.57)" fill="#023658"/><path d="M139.8,186.87v-9.56q0-2.9,4.57-2.9t4.49,2.88v9.56a2.18,2.18,0,0,1-1.27,2,6.59,6.59,0,0,1-3.24.71,6.68,6.68,0,0,1-3.3-.7A2.15,2.15,0,0,1,139.8,186.87ZM145,187V176.9c0-.29-.2-.44-.62-.44s-.67.15-.67.44V187c0,.3.22.44.67.44S145,187.33,145,187Z" transform="translate(-41.56 -11.57)" fill="#023658"/><path d="M178.31,174.55l-.62,2.25H173.2l-.17,3.06a3.26,3.26,0,0,1,2.06-.49c2.08,0,3.12.74,3.12,2.21v5.27a2.19,2.19,0,0,1-1.25,2,6.61,6.61,0,0,1-3.27.71q-4.51,0-4.52-2.68V184H173v3q0,.48.66.48t.66-.48v-5c0-.35-.25-.53-.73-.53s-.68.31-.69.92l-3.71-.09.2-7.79Z" transform="translate(-41.56 -11.57)" fill="#023658"/><path d="M163.23,189.41h-8.47v-2l4.17-6.73a5.76,5.76,0,0,0,.68-3q0-1-.75-1c-.52,0-.78.2-.78.62v2.55h-3.32v-2.59c0-1.92,1.39-2.88,4.19-2.88,1.73,0,2.87.36,3.43,1.06a5.56,5.56,0,0,1,.85,3.45,3.05,3.05,0,0,1-.37,1.56l-4.17,7h4.54Z" transform="translate(-41.56 -11.57)" fill="#023658"/><path d="M233.44,167a8.51,8.51,0,0,1-7.65-4.72l-10.14-20.32h-4.92v15.7a8.56,8.56,0,0,1-8.55,8.54H162.53a8.55,8.55,0,1,1,0-17.09h31.11v-40a8.55,8.55,0,0,1,8.54-8.54h18.65c.66,0,4.49.2,6.3,1.08,9.09,2.81,15.19,10.59,15.19,19.41a20.1,20.1,0,0,1-9.59,16.82l8.35,16.73A8.54,8.54,0,0,1,233.44,167Zm-12.31-40.84c2.81-1.29,4.44-3.12,4.44-5a4.87,4.87,0,0,0-2-3.51H210.73v8.47Z" transform="translate(-41.56 -11.57)" fill="url(#linear-gradient-6)"/><path d="M220.83,102.56c1.23,0,4.55.35,5.54.94,8.1,2.43,13.95,9.36,13.95,17.55,0,6.87-4.12,12.85-10.22,16l9.19,18.4a6.54,6.54,0,0,1-2.93,8.77h0a6.54,6.54,0,0,1-8.78-2.93l-10.69-21.41h-8.16v17.69h0a6.54,6.54,0,0,1-6.55,6.54H162.52a6.54,6.54,0,0,1-6.54-6.54h0a6.54,6.54,0,0,1,6.54-6.55h33.12v-42a6.54,6.54,0,0,1,6.54-6.54h18.65m-12.1,25.55h12.36a2.79,2.79,0,0,0,.51,0l.11-.05.08,0,.09,0c3.45-1.54,5.69-4,5.69-6.82,0-2.09-1.25-4-3.32-5.47h0v0H208.73v12.47m12.1-29.55H202.18a10.55,10.55,0,0,0-10.54,10.54v38H162.52a10.55,10.55,0,0,0,0,21.09h39.66a10.56,10.56,0,0,0,10.55-10.54V143.92h1.68l9.59,19.2a10.55,10.55,0,0,0,18.87-9.42l-7.58-15.17a21.93,21.93,0,0,0,9-17.48c0-9.66-6.61-18.18-16.48-21.28-2.56-1.16-7-1.21-7-1.21Zm-8.1,21.08h10a2.41,2.41,0,0,1,.81,1.51c0,.78-.89,2-2.88,3h-8v-4.47Z" transform="translate(-41.56 -11.57)" fill="#fff"/><path d="M184.81,115.68a6.54,6.54,0,0,0,0-13.08H163.68a6.54,6.54,0,0,0-6.54,6.54v40.11h13.08V138.8h12.63a6.54,6.54,0,1,0,0-13.08H170.22v-10Z" transform="translate(-41.56 -11.57)" fill="url(#linear-gradient-7)"/><path d="M149.44,102.47H122A6.54,6.54,0,0,0,115.5,109h0a6.54,6.54,0,0,0,6.54,6.54h7.63v42.12a6.48,6.48,0,0,0,6.48,6.48h.12a6.49,6.49,0,0,0,6.49-6.48V115.55h6.68A6.54,6.54,0,0,0,156,109h0A6.54,6.54,0,0,0,149.44,102.47Z" transform="translate(-41.56 -11.57)" fill="url(#linear-gradient-8)"/><path d="M230.1,137.09c6.1-3.19,10.22-9.17,10.22-16,0-8.19-5.85-15.12-13.95-17.55-1-.59-4.31-.94-5.54-.94H202.18a6.54,6.54,0,0,0-6.54,6.54v42H162.52a6.54,6.54,0,0,0-6.54,6.55h0a6.54,6.54,0,0,0,6.54,6.54h39.66a6.54,6.54,0,0,0,6.55-6.54h0V139.92h8.16l10.69,21.41a6.54,6.54,0,0,0,8.78,2.93h0a6.54,6.54,0,0,0,2.93-8.77Zm-9.67-9h-11.7V115.64H224.2v0h0c2.07,1.48,3.32,3.38,3.32,5.47,0,2.8-2.24,5.28-5.69,6.82l-.09,0-.08,0-.11.05C221.52,128.12,220.75,128.11,220.43,128.11Z" transform="translate(-41.56 -11.57)" fill="url(#linear-gradient-9)"/></svg>